<?xml version="1.0" encoding="utf-8"?>
<!-- Generator: Adobe Illustrator 24.0.1, SVG Export Plug-In . SVG Version: 6.00 Build 0)  -->
<svg version="1.1" id="Camada_1" xmlns="http://www.w3.org/2000/svg" xmlns:xlink="http://www.w3.org/1999/xlink" x="0px" y="0px"
	 viewBox="0 0 556 186" style="enable-background:new 0 0 556 186;" xml:space="preserve">
<style type="text/css">
	.st0{fill:#C1272D;}
</style>
<g>
	<path class="st0" d="M33.26,109.12c0-27.73,22.45-49.61,50.56-49.61c9.81,0,19.62,2.83,27.92,8.68v-7.73h23.58v96.4h-23.58v-6.41
		c-7.73,5.28-18.3,8.49-27.92,8.49C55.71,158.92,33.26,136.47,33.26,109.12z M111.74,109.12c0-14.9-12.64-27.73-27.92-27.73
		S55.9,94.21,55.9,109.12c0,14.9,12.64,27.73,27.92,27.73S111.74,124.02,111.74,109.12z"/>
	<path class="st0" d="M143.62,109.12c0-27.73,22.45-49.61,50.56-49.61c9.81,0,19.62,2.83,27.92,8.68V27.81h23.58v129.03h-23.58
		v-6.41c-7.73,5.28-18.3,8.49-27.92,8.49C166.07,158.92,143.62,136.47,143.62,109.12z M222.09,109.12
		c0-14.9-12.64-27.73-27.92-27.73s-27.92,12.83-27.92,27.73c0,14.9,12.64,27.73,27.92,27.73S222.09,124.02,222.09,109.12z"/>
	<path class="st0" d="M257.74,27.81h23.77v23.77h-23.77V27.81z M257.74,60.45h23.77v96.4h-23.77V60.45z"/>
	<path class="st0" d="M290.19,125.91h25.09c0.75,7.36,5.85,14.34,19.24,14.34c10,0,15.66-4.72,15.66-10c0-7.36-10-8.68-19.43-9.81
		c-11.7-1.32-38.29-4.34-38.29-29.62c0-18.49,14.34-31.32,39.8-31.32c24.52,0,39.43,12.26,40.94,31.5h-24.15
		c-0.57-5.66-2.45-12.83-16.22-12.83c-9.05,0-14.71,3.4-14.71,8.3c0,7.73,12.83,8.87,22.64,10.56c19.43,3.21,36.22,8.49,36.22,29.99
		c0,22.07-18.3,31.88-42.82,31.88C306.6,158.92,291.13,146.47,290.19,125.91z"/>
	<path class="st0" d="M383.38,111V60.45h23.58v44.52c0,20.37,3.02,30.94,20.94,30.94c13.21,0,21.13-8.3,21.13-22.07V60.45h23.58
		v96.4h-23.58v-7.73c-6.41,5.47-15.47,8.68-26.03,8.68C394.13,157.79,383.38,139.49,383.38,111z"/>
	<path class="st0" d="M484.67,27.81h23.77v129.03h-23.77V27.81z"/>
</g>
</svg>
